<svg width="482" height="482" viewBox="0 0 482 482" fill="none" xmlns="http://www.w3.org/2000/svg">
<path d="M448.349 274.651C466.934 160.136 389.167 52.2365 274.651 33.6513C160.136 15.0662 52.2365 92.8331 33.6514 207.349C15.0662 321.864 92.8332 429.763 207.349 448.349C321.864 466.934 429.764 389.167 448.349 274.651Z" fill="#1457BB"/>
<path d="M373.252 128.903C375.393 130.057 377.419 131.429 379.649 132.416C382.059 133.48 381.7 132.467 381.508 131.916C381.675 132.147 381.841 132.364 382.008 132.595C382.072 132.198 382.111 131.89 382.777 131.698L382.726 131.582C382.482 130.198 382.482 130.198 383.47 129.044C383.316 129.942 383.611 130.839 383.405 131.736C383.277 131.762 383.123 131.813 383.008 131.852C382.995 131.852 382.982 131.839 382.97 131.839C383.277 133.134 383.252 133.262 383.136 133.698C383.021 133.71 382.867 133.685 382.764 133.634C382.752 133.621 382.739 133.608 382.726 133.595C383.38 134.454 384.469 134.685 385.264 135.339C385.213 135.851 384.816 138.441 381.636 139.697C385.38 142.838 388.123 148.171 391.917 155.542C391.648 154.978 391.648 154.978 391.597 154.747C391.635 154.786 395.097 159.695 395.071 162.362C395.033 162.4 394.968 162.452 394.93 162.49C393.789 161.836 393.943 160.375 393.097 159.529C393.058 159.593 392.994 159.67 392.956 159.734C393.058 160.17 393.34 160.541 393.392 161.003C393.058 160.695 393.058 160.695 392.815 160.708C392.853 161.439 393.392 162.093 393.122 162.862C392.738 162.772 391.841 162.029 392.302 161.439C392.199 161.349 392.046 161.259 391.93 161.208C391.738 161.464 391.597 161.657 392.148 162.99C391.751 162.875 391.597 162.862 391.033 162.887C391.02 162.887 391.02 162.887 391.007 162.887C390.994 162.887 390.994 162.887 390.982 162.887C390.969 162.887 390.969 162.887 390.956 162.887C390.943 162.887 390.943 162.887 390.93 162.887C390.918 162.887 390.918 162.887 390.905 162.887C390.892 162.887 390.892 162.887 390.879 162.887C390.866 162.887 390.866 162.887 390.853 162.887C390.841 162.887 390.841 162.887 390.828 162.887C390.187 162.875 390.084 162.849 389.687 162.682C389.764 163.054 389.969 164.169 389.713 165.631V165.644C389.341 167.31 388.443 166.041 388.149 165.631C387.854 165.195 387.687 164.913 387.29 164.246C387.379 164.708 387.456 165.169 387.546 165.631C387.559 165.733 387.585 165.874 387.61 165.977C387.751 166.772 387.892 167.566 388.02 168.361C387.264 167.81 386.931 167.707 386.713 168.002C386.585 168.182 386.585 168.759 386.585 169.028C386.597 169.951 386.572 170.13 386.456 170.528C385.239 169.105 384.162 168.374 382.739 167.977C383.918 167.913 384.405 167.195 385.059 165.631C385.636 164.221 385.88 163.708 386.597 163.195C384.969 161.195 379.931 163.144 379.201 165.041C379.675 165.208 379.79 165.272 380.29 165.618C382.739 167.643 384.213 171.63 384.508 173.143C384.918 175.232 384.008 174.912 383.751 174.72C381.854 173.271 380.97 171.015 379.457 169.271C379.367 169.169 379.367 169.169 379.303 169.169C379.252 169.259 379.239 169.284 379.201 169.797C378.983 169.195 378.854 168.977 378.111 168.233C377.252 167.349 377.111 166.849 377.444 165.644C377.944 164.054 380.701 156.26 385.777 159.195C382.841 153.504 384.123 153.478 384.88 153.465C386.405 153.44 386.431 146.414 380.79 141.082C381.495 141.582 382.329 141.876 382.957 142.479C382.611 141.941 382.611 141.941 381.406 140.453C381.406 140.466 381.418 140.492 381.393 140.646C381.226 140.812 381.098 140.941 380.316 140.646C380.252 140.62 374.265 137.595 377.701 135.749C377.303 135.595 376.791 135.249 376.573 134.89C375.534 133.223 374.919 131.339 373.893 129.66C373.714 129.403 373.458 129.121 373.252 128.903ZM158.194 59.7683C158.797 59.6785 159.451 59.3452 161.028 58.5504C162.95 57.5762 163.22 57.4736 163.566 57.5633C163.643 57.73 163.566 58.1274 162.117 58.9222C162.425 59.0889 162.848 59.0632 164.04 58.8197C164.95 58.6274 165.053 58.6145 165.527 58.5633C165.694 57.9736 165.732 57.8326 165.489 57.5121C165.143 57.0506 164.566 56.9737 164.13 56.6788C164.976 56.6403 166.54 56.5763 169.322 56.1019C171.527 55.7302 170.834 54.538 170.809 54.5252C170.552 54.3457 169.937 54.3585 169.604 54.3713C167.36 54.5252 165.309 55.1789 164.707 55.4866C164.707 55.5122 164.694 55.5379 164.681 55.5635C164.373 55.602 164.053 55.5892 163.745 55.6789C163.604 55.7174 163.604 55.9225 163.438 55.9353C163.604 55.9994 163.707 56.0378 164.079 56.0635C163.938 56.1148 163.797 56.1789 163.656 56.243C163.066 55.9609 162.515 56.166 161.758 56.9352C161.72 56.6019 161.207 56.3327 161.502 55.9609C161.245 56.0763 160.438 56.4481 159.784 56.1917C159.707 56.1532 159.566 56.1917 159.489 56.2173C159.156 56.4224 159.053 56.8711 158.669 57.0378C158.733 56.8455 158.733 56.8455 158.682 56.7301C158.4 56.7173 158.002 57.3711 158.105 57.5377C158.271 57.7941 158.412 57.5377 158.605 57.1788C159.464 57.4352 160.374 57.0378 161.207 57.3967C157.297 58.8966 157.297 58.8966 157.13 59.1786C157.284 59.5247 158.194 59.7683 158.194 59.7683ZM108.16 78.4718C109.404 77.6898 115.096 73.8055 115.147 73.767C115.096 73.8311 115.006 73.9081 114.955 73.9722C115.583 73.8824 115.737 73.8568 117.634 72.78C119.48 71.6006 122.095 71.7416 123.287 69.4469C122.774 69.4854 122.313 69.7033 121.826 69.8315C122.762 69.2931 123.685 68.7162 124.646 68.2163C124.287 68.588 123.864 68.9085 123.48 69.2674C124.236 69.1649 126.108 67.9342 126.261 67.7548C126.082 67.8317 125.851 67.9471 125.685 68.0496C126.249 67.7035 126.838 67.3958 127.389 67.024C127.21 67.1266 126.979 67.242 126.8 67.3317C126.838 67.2292 126.838 67.2292 129.312 64.9986C129.582 65.0627 130.235 65.2165 130.569 64.4474C130.594 64.5243 130.62 64.6397 130.646 64.7166C131.543 64.9986 132.004 64.1525 132.697 63.9089C132.299 63.9346 132.299 63.9346 131.684 64.2551C133.274 63.2552 133.35 63.2423 134.62 62.986C136.235 62.4604 137.273 61.0246 138.76 60.2811C138.683 60.2939 138.568 60.3195 138.491 60.3323C138.504 60.2426 138.517 60.1144 138.517 60.0119C139.504 59.4222 140.799 59.6273 141.709 58.8197C141.632 58.8197 141.529 58.8068 141.44 58.8068C141.773 58.6274 142.17 58.5504 142.452 58.2684C142.222 58.2684 142.222 58.2684 141.363 58.5248C144.824 56.7045 148.657 55.7943 152.246 54.2816C152.49 54.179 152.81 54.038 153.054 53.9355C151.708 53.5765 151.708 53.5765 147.247 55.1789C148.593 53.1278 152.144 54.9097 152.951 51.9228C152.759 51.8587 152.49 51.7818 152.285 51.7946C151.298 51.9228 149.99 52.2946 149.426 52.5125C149.349 52.551 149.285 52.5766 149.208 52.6151L149.311 52.5766L149.272 52.5894L149.118 52.6663C149.106 52.6792 149.08 52.6792 149.067 52.692L149.118 52.6663L149.131 52.6535L149.157 52.6407C149.234 52.6023 149.336 52.551 149.413 52.5125C147.875 52.8715 147.875 52.8715 146.234 53.7688C146.49 53.5509 146.49 53.5509 147.106 53.1663C146.683 53.3201 146.311 53.5637 145.901 53.7304C145.978 53.6919 146.08 53.6278 146.157 53.5893C145.952 53.6791 145.683 53.8073 145.478 53.897C145.683 53.7816 145.965 53.6406 146.17 53.5381C145.683 53.7688 145.08 54.0765 144.478 54.397C134.838 59.3837 125.646 65.114 116.955 71.4724C112.058 75.0618 107.34 78.8692 102.776 82.856C104.84 81.0869 108.724 77.818 109.891 77.0745C109.353 77.5872 108.737 78.0103 108.16 78.4718ZM373.419 126.621C372.817 125.711 372.265 125.109 369.484 122.609C366.984 120.366 366.509 119.853 366.292 119.225C366.317 119.173 366.356 119.096 366.381 119.045C366.753 118.968 366.958 118.93 368.304 119.366C367.945 118.366 367.612 117.661 366.009 116.353C363.599 114.392 360.548 113.546 358.061 111.712C355.51 109.828 353.575 107.251 351.049 105.341C350.229 104.726 349.024 103.982 347.973 104.021C347.703 104.046 347.626 104.072 347.37 104.162C348.139 105.072 349.37 105.418 350.101 106.392C350.101 106.392 350.101 106.405 350.113 106.405C353.972 108.867 362.471 117.802 366.548 122.096C370.086 125.814 370.971 126.698 371.765 127.288C371.086 126.391 370.74 125.827 370.291 124.839C370.573 124.916 370.573 124.916 371.509 125.557C372.419 126.186 373.214 126.737 373.419 126.621ZM184.038 68.306C184.09 68.447 184.141 68.5624 184.679 68.729C184.782 68.6265 184.91 68.4983 184.987 68.3829C184.936 68.306 184.859 68.2034 184.795 68.1393C184.833 68.0368 184.936 67.9214 185 67.8445C186.359 69.9469 187.948 70.3314 189.858 69.0367C189.371 68.0496 188.551 67.2676 188.128 66.2549C189.499 65.8959 190.756 64.7807 191.127 63.6013C191.858 63.9474 192.743 63.4346 194.845 62.1911C197.114 60.8579 199.768 61.1784 202.178 60.4349C202.473 60.3452 202.857 60.1785 203.139 60.0631C201.486 59.7939 199.845 59.6785 198.229 59.7042C197.281 59.7555 196.858 59.8067 196.114 60.0247C195.627 60.1657 195.294 60.6015 194.819 60.7554C193.127 61.3322 191.345 61.5758 189.679 62.2168C189.961 62.6142 189.833 62.768 188.653 63.3449C188.602 63.3705 183.359 66.7036 183.436 67.4215C183.846 67.665 184.372 67.6137 184.769 67.9214C184.243 68.0752 184.154 68.1009 184.038 68.306ZM372.573 161.977C372.599 162.016 372.624 162.041 372.65 162.08C372.624 162.054 372.599 162.016 372.573 161.977C372.573 161.977 372.56 161.977 372.573 161.977ZM93.995 106.585C92.431 107.623 92.431 107.623 89.5338 110.892C89.521 110.905 89.2646 111.802 90.0338 111.802C90.5466 111.815 91.226 111.392 91.5208 111.212C91.2132 111.456 91.0465 111.584 90.8158 111.738C94.0975 110.084 94.7641 110.841 94.9693 111.687C95.3923 110.277 96.8409 109.866 97.687 108.854C98.7638 107.546 97.7895 107.649 97.2511 107.7C96.9563 107.726 96.9434 107.726 96.8152 107.7C97.4306 106.969 98.3664 105.88 98.1613 105.405C98.9561 105.7 100.225 100.047 100.187 99.9699C100.161 99.893 100.059 99.8289 100.007 99.7648C101.853 98.9828 104.866 96.3548 104.981 95.4446C104.738 95.1626 104.353 95.3421 102.725 96.06C105.391 94.0729 105.391 94.073 106.071 93.3679C105.866 93.5602 105.584 93.8294 105.379 94.0217C103.071 95.7523 101.482 96.201 101.046 96.2907C101.161 96.0856 101.302 95.9061 101.379 95.6754C101.353 95.6754 101.315 95.6626 101.276 95.6626C102.135 95.0344 102.738 94.4575 103.225 93.8166C102.853 93.8166 102.61 94.0345 101.828 94.7267C100.661 95.7138 100.661 95.7138 100.648 95.7779C99.9047 96.3933 99.4304 97.0214 99.3407 97.1368C99.7893 96.7137 100.2 96.2523 100.635 95.8036C100.635 95.8292 100.623 95.8805 100.623 95.9061C100.648 95.9318 100.674 95.9574 100.7 95.9702C100.828 95.9446 100.828 95.9446 100.982 95.8549C100.161 96.6368 99.7253 97.3675 99.7124 97.3675C99.9432 97.4445 100.02 97.2906 100.2 96.9701C100.212 96.9958 100.225 97.0342 100.225 97.0727C100.379 97.0855 100.469 97.0855 100.994 96.7137C100.969 96.7394 97.8793 99.3545 97.6998 99.534C97.7126 99.534 99.5073 98.5341 100.135 98.0085C99.6868 98.4828 99.6868 98.4828 98.3408 99.5853C98.4433 99.4955 98.5715 99.3674 98.6741 99.2776C97.4434 100.111 97.4434 100.111 96.6486 100.97C97.0075 100.726 97.2255 100.56 97.5972 100.252C97.3921 100.457 96.8665 100.995 96.6486 101.521C96.764 101.521 97.0075 101.521 98.5587 100.034C97.3152 101.393 97.0973 101.688 97.0588 102.2C97.2383 102.38 97.2383 102.38 98.0075 102.406C97.3408 102.893 96.4435 103.867 96.2384 104.444C96.264 104.469 96.2897 104.495 96.3153 104.521C96.3794 104.508 96.4563 104.482 96.5076 104.457C95.623 105.457 95.2641 105.739 93.995 106.585ZM384.11 124.711C384.123 124.57 383.969 124.199 383.7 123.609C383.687 123.583 383.675 123.558 383.662 123.532C383.662 123.558 383.649 123.583 383.649 123.609C383.623 123.763 383.585 124.032 383.675 124.34C383.623 124.314 383.559 124.275 383.508 124.25C383.675 124.442 384.098 124.942 384.11 124.711ZM116.762 76.8693C116.288 77.0103 115.788 76.7796 115.326 76.9719C114.698 77.2283 114.301 77.5231 113.519 78.2282C113.942 77.7923 114.096 77.6129 114.109 77.459C113.852 77.318 112.801 77.9205 111.34 79.023C113.698 76.9334 113.955 76.5745 114.121 76.3309C114.096 76.3309 114.07 76.3437 114.045 76.3437C113.686 76.6001 113.186 77.0104 112.557 77.5744C112.686 77.4078 112.698 77.3693 112.724 77.2924C112.634 77.2667 112.545 77.2539 111.391 78.3051C111.404 78.2795 111.429 78.2282 111.442 78.2026C111.365 78.1897 111.301 78.1769 110.558 78.741C110.596 78.7281 110.635 78.741 110.673 78.741C110.699 78.8563 110.647 78.9589 110.66 79.0614C110.673 79.0743 110.699 79.0871 110.724 79.0999C110.622 79.1768 110.481 79.2666 110.378 79.3435C110.314 79.446 110.314 79.4589 110.314 79.5358C110.327 79.5486 110.353 79.5614 110.365 79.5742C110.353 79.587 108.635 80.2408 108.66 80.7152C108.737 80.7408 108.75 80.7536 108.904 80.6895C106.289 82.5996 107.43 82.8945 107.443 82.8945C107.917 83.0098 109.788 82.4458 111.622 81.3048C111.993 81.0741 112.468 80.7664 112.814 80.51C113.429 80.0485 113.916 79.4332 114.634 79.0871C114.609 79.0743 114.57 79.0486 114.532 79.0358C114.583 78.8307 114.711 78.4974 116.762 76.8693ZM372.74 162.195C372.701 162.157 372.676 162.118 372.65 162.08C372.676 162.131 372.714 162.157 372.74 162.195ZM101.725 83.7533L101.699 83.779L101.558 83.9072C101.956 83.5482 102.366 83.2021 102.776 82.856C102.315 83.2406 101.943 83.5611 101.725 83.7533ZM222.855 56.025C222.843 56.0122 222.843 55.9994 222.83 55.9866C223.612 55.7558 224.291 55.6789 225.624 55.5892C224.65 55.7045 224.445 55.9481 224.253 56.2814C225.701 56.7685 226.97 57.6915 228.509 57.9736C229.829 58.2171 230.586 57.7172 230.906 57.4992C230.983 57.448 231.226 57.2685 231.496 56.948C231.496 56.9352 231.509 56.9352 231.509 56.9224C231.444 56.8583 231.444 56.8583 231.034 56.7301C230.521 56.5378 230.586 56.384 231.009 56.0635C229.406 56.1019 228.765 55.7558 227.945 55.3328C226.983 54.8328 226.214 54.5893 224.496 54.6021C223.868 54.6149 223.496 54.6405 222.907 54.6918C222.996 55.1148 223.022 55.5507 222.189 55.4097C222.791 55.5379 223.15 55.602 223.727 55.6404C223.061 55.6404 222.676 55.6276 222.099 55.5763C222.24 55.7045 222.548 56.0635 222.855 56.025ZM275.928 61.704C275.812 61.7553 275.812 61.7553 275.71 61.7425C276.223 61.8194 276.748 61.7681 277.274 61.8322C279.068 62.063 280.786 62.6526 282.581 62.8193C283.748 62.9347 284.568 62.8065 284.747 62.6142C284.568 62.1911 281.555 61.7296 281.517 61.7168C281.504 61.7168 281.504 61.7168 281.491 61.7168C281.491 61.7168 281.491 61.7168 281.504 61.7296C281.491 61.7296 281.491 61.7296 281.491 61.7296C280.735 61.6784 280.017 61.4476 279.261 61.3451C277.902 61.422 276.825 60.3452 275.466 60.3836C275.082 60.4221 275.03 60.5246 274.992 60.6528C275.235 61.0887 275.735 61.2553 275.928 61.704ZM232.983 58.4607C232.996 58.4607 232.996 58.4607 232.996 58.4607C232.996 58.4607 232.996 58.4607 233.008 58.4607C235.188 58.4351 236.585 57.9479 237.226 57.6531C237.303 57.6146 237.405 57.5634 237.482 57.5249C236.713 56.8326 234.816 56.166 233.649 56.1917C232.149 56.2814 231.944 57.8966 232.432 58.2812C232.688 58.4607 232.906 58.4607 232.983 58.4607ZM291.452 62.4732C291.465 62.4347 291.49 62.3834 291.503 62.345C289.952 61.3707 288.67 60.9989 287.055 61.0374C286.363 61.0887 285.901 61.1656 285.17 61.4604C285.363 61.4092 285.85 61.5758 286.747 61.8835C288.439 62.4732 291.003 63.3705 291.452 62.4732ZM380.688 117.584C380.701 117.558 380.675 117.481 380.624 117.379C380.457 117.084 379.97 116.481 379.713 116.392V116.404C379.752 116.558 380.06 117.007 380.265 117.25C380.354 117.391 380.624 117.686 380.688 117.584ZM382.444 120.981C382.457 120.968 382.47 120.955 382.457 120.917C382.431 120.84 382.264 120.75 382.123 120.712V120.75C382.149 121.058 382.393 121.045 382.444 120.981ZM383.957 126.468C383.944 126.442 383.931 126.403 383.918 126.378C383.79 126.339 383.79 126.339 383.713 126.352C383.534 126.416 383.469 126.647 383.521 127.032C383.508 126.98 383.482 126.942 383.47 126.891C383.457 126.942 383.457 126.993 384.021 128.147C384.264 127.98 384.533 127.634 383.957 126.468ZM382.995 122.019C383.046 122.045 383.085 121.994 383.085 121.904V121.891C382.957 121.75 382.79 121.583 382.713 121.596C382.636 121.622 382.854 121.968 382.995 122.019ZM191.204 55.4097C191.294 55.461 192.281 55.6661 192.294 55.6661C192.602 55.7045 192.909 55.6404 193.025 55.6148C193.05 55.4866 193.038 55.4481 192.922 55.3584C192.999 55.3328 193.114 55.3071 193.191 55.2943C194.127 55.6789 194.127 55.6789 196.037 54.8585C196.255 55.5122 196.255 55.5122 199.627 54.3585C199.588 54.4354 199.524 54.5252 199.486 54.6021C199.255 54.82 199.242 54.8456 199.216 54.9226C199.293 54.9482 199.499 54.9097 199.832 54.82L199.934 54.6021L199.96 54.5508C200.037 54.2816 200.024 54.2559 199.998 54.1662C199.588 53.9867 199.486 53.9739 198.486 54.0637C198.627 53.9355 198.806 53.7816 198.947 53.6663C198.281 53.6534 197.678 53.9996 197.024 54.0252C197.024 54.0508 197.076 54.3329 197.704 54.2944C197.319 54.4354 196.909 54.4995 196.524 54.6149C196.294 54.6277 195.948 54.6533 194.499 54.9995C194.512 55.0507 194.537 55.1148 194.55 55.1661C194.307 55.1277 194.102 55.1149 193.82 55.1149C194.268 54.9738 194.525 54.8841 194.884 54.7303C194.345 54.5893 193.961 54.5252 193.294 54.4995C193.627 54.4611 194.153 54.3329 194.473 54.2047C194.896 54.3072 195.896 54.5636 196.012 54.1534C195.986 54.1149 195.948 54.0637 195.896 54.0508C195.614 53.9739 195.307 54.0252 195.037 53.9098C194.319 53.5893 194.23 53.6022 194.14 53.615C194.102 53.6919 194.102 53.6919 194.217 53.9867C193.268 54.1534 192.358 54.5764 191.371 54.5123L191.179 54.6149C191.23 54.7431 191.23 54.7559 191.204 54.8328C191.14 54.8713 191.102 54.8969 190.807 54.7815C190.807 54.8841 190.807 54.8969 190.845 55.0379C190.82 55.0379 190.794 55.0379 190.769 55.0508C190.461 54.9738 190.115 54.9097 189.474 54.9738C189.461 55.1405 189.461 55.2687 189.499 55.461C191.14 55.3841 191.14 55.3841 191.204 55.4097ZM381.316 118.725C381.252 118.609 381.175 118.532 381.124 118.481C381.034 118.494 381.111 118.699 381.38 119.173C381.431 119.071 381.406 118.904 381.316 118.725ZM184.179 55.1149C184.615 55.0508 185.423 54.9354 186.32 55.0123C185.756 55.1148 185.756 55.1148 185.705 55.1533C185.705 55.1789 185.718 55.2046 185.743 55.2174C185.346 55.3071 185.115 55.3456 184.807 55.3456C185 55.7815 185.589 55.8199 187.051 55.4738C186.948 55.5123 186.807 55.5635 186.705 55.602C186.846 55.6533 186.974 55.6533 187.115 55.6276C186.987 55.7815 186.743 56.0635 187.371 55.9994C187.717 55.9609 188.282 55.7943 188.474 55.743C188.512 55.7302 188.551 55.7174 188.589 55.7045C188.166 55.5123 187.769 55.4866 187.218 55.602C187.423 55.5507 187.564 55.4994 187.769 55.3712C187.717 55.3584 187.641 55.3456 187.589 55.3328C188.038 55.2174 188.499 55.0892 188.948 54.9738C188.923 54.679 188.884 54.179 187.32 54.2047C186.205 54.2688 185 54.538 183.743 55.0251C183.961 55.102 184.077 55.1149 184.179 55.1149C184.179 55.1149 184.192 55.1149 184.179 55.1149ZM364.035 408.609C363.343 408.994 362.651 409.404 361.959 409.776C364.048 408.327 364.048 408.327 364.138 408.097C363.971 408.135 363.74 408.199 363.574 408.238C359.818 410.314 356.395 412.981 352.447 414.724C346.87 417.185 346.87 417.185 345.383 418.019C342.371 419.724 342.063 420.134 342.012 420.403C343.383 420.942 358.831 412.186 362.958 409.353C363.279 409.148 363.715 408.84 364.035 408.609ZM362.061 410.135C363.061 410.071 371.765 404.212 374.714 401.764C374.752 401.725 374.816 401.674 374.855 401.648C374.188 401.866 373.778 402.469 373.15 402.738C373.355 402.443 373.355 402.443 377.009 399.277C376.444 399.713 375.88 400.136 375.329 400.584C375.586 400.354 375.842 400.097 376.098 399.866C372.522 402.905 362.176 410.058 362.061 410.135ZM381.624 394.636C379.893 396.072 378.316 397.7 376.637 399.187C376.855 399.059 377.034 398.879 377.252 398.738C377.214 398.802 377.111 398.905 377.034 398.995C378.701 397.431 380.354 395.841 382.072 394.329C381.931 394.418 381.752 394.546 381.624 394.636ZM354.664 79.6896C354.652 79.6768 354.639 79.6768 354.626 79.664C354.639 79.6768 354.652 79.6768 354.664 79.6896ZM354.575 79.6383C354.587 79.6511 354.6 79.6511 354.613 79.664C354.613 79.6511 354.6 79.6383 354.575 79.6383ZM86.5726 111.251C87.0982 111.033 89.9312 109.674 94.3411 104.29C94.7898 103.739 96.1743 102.047 95.2256 102.085C95.1615 102.085 95.0846 102.098 95.0334 102.111C93.3027 102.675 92.1233 104.162 90.4825 104.88C90.1876 105.662 89.9056 105.995 89.2646 106.405C89.5851 106.777 88.9954 107.482 87.4443 109.008C86.6367 109.79 84.1369 112.251 86.5726 111.251ZM348.908 397.174C348.921 397.162 348.934 397.162 348.934 397.149C348.896 397.174 348.857 397.213 348.819 397.251C348.844 397.226 348.883 397.2 348.908 397.174ZM392.097 370.984C392.212 370.856 392.315 370.715 392.417 370.587L392.405 370.6C392.302 370.728 392.199 370.856 392.097 370.984ZM377.034 398.995C376.726 399.29 376.419 399.572 376.098 399.866C376.509 399.508 376.829 399.213 377.034 398.995ZM345.306 408.879C344.806 408.866 344.306 408.789 343.806 408.802C343.294 408.827 342.23 408.866 340.422 410.032C338.332 411.365 336.615 413.173 334.653 414.673C337.012 414.263 337.307 414.07 340.037 412.237C342.627 410.507 344.678 409.135 345.165 408.93C345.204 408.904 345.268 408.891 345.306 408.879ZM166.924 188.077C167.54 188.18 167.694 188.116 167.732 188.065C167.796 187.975 167.553 187.847 167.309 187.86C167.078 187.885 166.989 187.988 166.924 188.077ZM116.339 154.619C116.352 154.619 116.352 154.606 116.352 154.606L116.339 154.619ZM86.1239 142.274L86.1111 142.351C86.0598 142.671 85.9444 143.005 85.5727 144.107C84.8804 146.132 83.7267 149.53 84.7137 148.901C85.5983 148.337 87.2264 145.556 88.0083 143.838C88.9826 141.723 88.4057 141.748 88.2134 141.761C88.0981 141.774 87.7263 141.864 86.8289 142.376C86.1495 142.774 86.1495 142.735 86.1239 142.274ZM62.8182 148.85C62.8439 148.825 62.8567 148.799 62.8823 148.773C62.8567 148.786 62.8439 148.812 62.8182 148.85ZM88.0853 141.094C88.3929 140.659 89.3287 139.351 90.303 137.326C90.6363 136.62 90.8799 136.044 90.9696 135.826C90.9055 135.851 90.8286 135.89 90.7645 135.928C89.4826 136.826 88.2263 139.159 88.2775 139.325C87.8545 140.248 87.8032 140.659 88.0853 141.094ZM375.906 249.969C376.009 248.431 375.47 247.495 375.15 246.944C375.111 247.021 375.06 247.124 375.021 247.2C374.65 248.047 374.047 249.521 374.265 249.828C374.393 249.777 374.457 249.752 374.868 249.2C373.099 252.174 371.176 255.225 370.996 255.482L370.753 255.841C370.137 256.841 369.83 257.482 369.407 258.623C371.958 257.289 375.662 253.533 375.906 249.969ZM387.764 284.325C387.867 283.941 387.828 283.402 387.777 283.005C387.431 283.082 386.982 283.184 386.636 283.249C383.61 283.864 380.495 284.043 377.483 284.774C376.65 284.979 376.034 285.364 375.65 285.915C375.419 286.248 375.265 286.582 375.15 286.851C374.483 288.351 374.214 289.979 373.701 291.517C372.714 294.466 370.419 296.747 369.535 299.734C368.65 302.747 369.368 305.875 368.868 308.913C369.881 308.58 370.637 308.58 371.496 308.875C371.509 308.798 373.163 300.529 374.547 299.183C375.175 300.068 375.265 300.209 374.919 302.939C374.445 306.785 376.509 306.054 376.919 305.875C376.752 306.272 376.239 307.49 376.406 308.939C376.47 308.977 376.573 309.028 376.637 309.08C377.842 308.503 378.893 305.388 378.842 304.221C378.367 304.375 378.098 304.542 377.675 304.913C378.175 301.76 376.803 298.811 376.727 295.722C378.675 298.196 379.777 292.35 382.111 291.761C379.572 291.286 376.996 292.773 374.47 291.581C373.47 291.107 373.893 290.312 375.944 288.851C378.175 287.248 379.56 287.428 382.329 287.774C384.739 288.081 384.931 287.902 385.931 286.915C385.815 287.082 385.649 287.287 385.533 287.441C387.572 285.005 387.572 285.005 387.764 284.325ZM392.276 299.452C391.148 299.516 389.52 300.145 390.866 301.311C391.046 301.465 391.264 301.606 391.418 301.696C391.341 301.747 391.341 301.76 391.315 301.811C391.328 301.811 391.328 301.824 391.341 301.824C391.379 301.811 391.405 301.798 391.456 301.721C393.405 302.785 395.392 302.888 395.981 301.939C396.404 301.273 395.815 300.657 395.725 300.593C395.75 300.837 395.968 301.093 396.084 301.311C394.981 299.504 392.712 299.452 392.276 299.452ZM381.329 244.97C381.316 244.957 381.329 244.931 381.303 244.931C381.316 244.944 381.316 244.97 381.329 244.97ZM382.264 291.812C382.2 291.761 382.162 291.761 382.123 291.761C382.175 291.773 382.226 291.786 382.264 291.812ZM380.995 250.341C381.47 251.392 383.418 249.649 383.431 249.636C383.777 249.316 383.969 248.995 383.995 248.688C384.046 248.226 383.854 248.008 383.303 247.38C382.098 246.008 381.816 245.585 381.585 245.213C381.508 245.252 381.457 245.201 381.341 244.983C381.341 245.008 381.341 245.034 381.341 245.047C381.329 245.265 381.303 245.457 381.188 246.239C380.995 247.495 380.662 249.623 380.995 250.341ZM374.752 317.964L375.739 318.246C375.714 318.297 375.688 318.361 375.662 318.412C375.342 318.502 374.906 318.592 374.573 318.656C374.765 318.874 374.765 318.874 375.47 319.143L375.56 319.066C376.265 318.874 376.906 318.528 377.598 318.322C377.547 318.425 377.496 318.553 377.444 318.656C377.701 318.604 378.073 318.566 378.29 318.412C378.547 318.22 378.572 317.861 378.816 317.656C378.855 317.617 378.931 317.592 378.983 317.566C378.931 317.553 378.88 317.528 378.829 317.515C378.816 317.515 378.816 317.515 378.803 317.515C378.496 317.464 378.201 317.643 377.893 317.553C377.214 317.617 376.893 317.681 376.509 317.81C375.739 316.938 374.611 317.758 374.611 317.771C372.637 317.194 369.509 317.438 367.894 317.733C366.83 317.925 365.933 318.604 364.869 318.758C364.074 318.874 363.343 318.566 362.574 318.502C362.766 318.771 362.869 318.899 363.215 319.027C362.548 319.515 362.266 319.143 361.753 318.463C360.536 318.438 360.048 318.643 359.728 318.784C359.343 317.605 358.741 317.323 358.472 317.335C357.382 317.681 358.113 318.63 359.215 320.053L359.292 320.015C361.087 320.502 362.882 319.681 364.676 319.989C364.138 318.643 370.932 319.399 371.009 319.412C370.971 319.463 370.932 319.527 370.894 319.579C372.214 319.079 373.406 318.335 374.752 317.964ZM341.101 316.066C341.127 316.066 341.14 316.066 341.166 316.066C337.422 315.284 335.063 314.502 331.474 312.849C333.371 312.272 334.769 310.785 336.576 310.054C339.614 309.605 341.473 312.746 344.409 312.643C346.934 312.554 349.319 311.387 351.895 311.656C352.075 311.682 352.306 311.695 352.485 311.733C354.216 312.079 354.421 312.913 354.613 313.656C353.639 314.323 352.549 314.861 351.113 314.297C351.844 315.477 351.985 315.694 354.267 316.041C357.767 316.579 357.382 317.938 357.19 318.335C357.151 318.412 357.087 318.502 357.023 318.566C356.587 319.066 354.293 319.963 354.305 317.707C353.882 319.297 350.665 318.476 341.076 316.053C341.076 316.066 341.089 316.066 341.101 316.066ZM350.998 314.233C350.998 314.233 350.998 314.246 350.998 314.233C350.998 314.246 350.998 314.233 350.998 314.233ZM341.345 316.066C341.486 316.066 341.742 316.053 341.794 316.041C341.755 316.002 341.178 315.964 341.127 315.989C341.153 316.002 341.166 316.015 341.345 316.066ZM383.585 317.797C383.764 317.412 383.393 317.451 382.957 317.502C377.547 318.758 374.15 323.373 373.304 325.04C373.624 324.937 374.368 324.694 376.791 323.386C378.97 322.155 383.072 318.899 383.585 317.797ZM361.753 302.208C361.779 302.196 363.792 301.567 362.138 303.593C362.625 303.042 363.215 302.234 363.548 301.58C364.497 299.696 364.266 297.491 365.163 295.594C366.266 293.273 368.368 291.62 369.407 289.261C370.137 287.607 370.073 286.889 369.971 285.684C371.304 287.351 371.868 286.389 372.047 285.902C372.496 284.684 372.355 282.249 369.125 277.557C369.573 277.852 369.573 277.852 369.855 277.967C369.881 277.864 369.881 277.864 368.83 276.159C369.278 276.198 370.676 276.198 370.291 274.698C370.33 274.749 370.381 274.826 370.407 274.878C370.458 274.852 370.535 274.826 370.586 274.801C370.573 274.608 370.535 274.198 370.278 273.378C371.381 274.378 372.086 273.096 372.022 272.275C371.996 272.032 371.868 271.724 371.765 271.493L371.804 271.455C372.163 271.057 375.227 267.558 373.509 267.519C372.906 267.506 371.791 268.019 371.253 268.263C371.688 267.968 371.688 267.968 371.829 267.724C371.483 267.57 371.483 267.57 370.471 267.673C371.547 265.263 369.714 264.096 369.266 264.135C368.919 264.25 368.868 264.314 368.637 264.609C368.637 264.545 368.637 264.455 368.625 264.391C368.586 264.391 365.368 264.571 364.099 272.609C364.022 271.878 363.946 271.737 363.484 271.262C362.882 272.442 362.612 273.185 362.318 274.467C361.241 274.224 361.638 272.711 360.587 272.442C359.356 275.839 353.831 280.48 353.062 279.287C353.023 279.236 353.011 279.146 352.985 279.095C352.241 280.864 351.972 282.031 351.883 283.89C350.793 283.031 348.344 283.454 348.498 281.505C346.588 283.39 345.793 284.172 346.088 288.056C346.101 288.184 347.819 300.798 349.96 300.927C350.613 300.965 351.216 299.914 351.511 299.414C351.883 301.555 356.51 301.773 357.856 301.068C357.203 303.99 360.356 302.837 361.753 302.208ZM354.395 206.281C354.344 206.358 354.293 206.435 354.241 206.512C354.305 206.448 354.344 206.384 354.395 206.281C354.408 206.281 354.395 206.281 354.395 206.281C354.395 206.281 354.408 206.281 354.395 206.281ZM371.137 198.974C372.022 197.372 372.317 196.756 372.163 196.102C372.137 196.051 372.112 196 372.086 195.949C372.253 196.243 372.483 196.641 372.522 197.551C372.586 198.718 372.291 200.166 372.022 201.448C371.522 203.845 371.291 205.166 371.701 206.396C371.022 205.55 371.022 205.55 370.355 205.05C370.381 205.063 370.432 205.089 370.458 205.114C370.24 204.935 370.24 204.935 370.201 204.858C370.291 204.897 370.368 204.948 370.445 204.999C369.099 203.333 369.599 201.73 371.137 198.974ZM370.894 205.448L370.535 205.102C370.535 205.114 370.535 205.127 370.535 205.14L370.804 205.358L370.894 205.448ZM370.919 205.32L370.791 205.217H370.778L370.919 205.32ZM372.381 207.255C372.394 207.268 372.406 207.268 372.406 207.281C372.176 206.986 371.958 206.691 371.701 206.409C371.701 206.422 371.714 206.435 371.714 206.448C371.817 206.666 371.996 207.012 372.381 207.255ZM331.91 312.387C331.91 312.387 331.923 312.387 331.91 312.387C331.782 312.208 331.705 312.131 331.654 312.131C331.641 312.131 331.628 312.131 331.628 312.169C331.628 312.233 331.769 312.528 331.91 312.387ZM308.181 268.942C308.181 268.942 308.168 268.942 308.181 268.942C308.168 268.942 308.181 268.942 308.181 268.942ZM333.333 284.274C333.346 284.274 333.346 284.274 333.333 284.274C333.346 284.274 333.346 284.274 333.333 284.274ZM308.438 228.343C308.309 228.138 308.143 227.869 308.015 227.664C304.374 230.01 304.374 230.01 303.348 228.664C301.9 226.766 301.502 223.869 301.31 222.485C300.49 216.524 295.593 213.011 292.76 208.268C292.426 207.704 292.016 206.948 291.683 206.384C291.349 205.832 290.824 205.166 290.452 204.64C289.952 204.691 289.273 204.743 288.76 204.768C288.439 207.242 288.439 207.242 287.452 208.371C287.157 207.96 286.824 207.383 286.606 206.935C286.363 207.319 285.94 207.794 285.555 208.05C285.094 207.909 284.427 207.819 283.94 207.858C283.773 208.063 283.555 208.345 283.401 208.55C283.235 208.383 283.03 208.165 282.863 207.999C282.671 208.127 282.414 208.281 282.222 208.409C281.902 208.076 281.645 207.448 281.594 206.986C277.774 215.793 267.634 219.254 263.762 228.023C260.032 236.483 262.519 246.226 258.314 254.584C257.686 255.828 256.878 257.674 255.686 258.392C250.84 261.302 228.816 221.575 235.7 208.371C235.483 208.217 235.188 208.012 234.97 207.858C234.918 207.396 234.79 206.781 234.624 206.345C234.393 206.281 234.098 206.204 233.867 206.14C233.995 206.422 234.239 206.781 234.316 207.089C234.931 209.524 231.688 212.024 229.778 211.742C226.253 211.216 226.894 207.037 224.407 205.602C226.868 205.32 227.163 204.576 227.458 203.858C225.33 203.974 223.535 203.602 220.638 201.435C216.241 197.718 215.638 195.436 215.433 194.679C207.485 190.423 198.434 197.448 190.576 192.269C189.807 191.757 188.794 191.039 188 190.564C184.295 188.372 179.975 190.77 176.231 188.962C171.501 186.693 171.962 179.847 166.668 178.078C166.36 177.976 165.912 178.001 165.578 177.976C165.566 177.989 164.425 179.335 162.566 180.591C162.566 180.591 162.566 180.591 162.579 180.591H162.591C164.45 181.052 164.72 181.476 165.514 185.129L171.155 197.231C174.244 200.666 185.564 200.358 186.089 191.116C188.243 193.41 186.487 196.743 188.256 199.141C190.025 201.538 193.679 200.961 195.294 203.589C195.794 204.409 195.883 205.832 195.691 206.768C195.076 209.845 190.756 218.165 178.782 227.625C178.552 227.805 155.297 246.098 150.144 241.15L130.889 190.629C130.671 190.052 130.376 189.283 130.171 188.706C128.928 185.014 129.21 182.847 129.556 180.335C127.184 183.514 127.223 184.603 127.313 186.796C124.992 183.604 124.236 181.796 123.954 178.707C121.569 182.834 121.339 185.924 126.095 194.372C129.684 200.743 129.684 200.743 135.081 220.1C137.376 228.343 139.811 232.753 143.773 235.817C145.644 237.265 149.118 239.958 149.875 241.765C150.862 244.124 149.811 244.97 147.888 246.495C157.707 250.2 157.707 250.2 160.156 249.457C172.937 245.637 172.937 245.637 173.065 246.316C173.167 246.867 175.308 260.263 155.002 285.736C134.902 310.951 149.811 325.001 149.977 325.117C149.939 325.424 149.9 325.835 149.862 326.142C150.208 331.065 153.413 335.218 153.682 340.154C154.015 346.346 146.99 347.461 145.311 352.281C143.157 358.486 150.81 362.178 149.388 368.19C148.849 370.433 146.99 371.818 145.99 372.548C148.952 375.356 151.746 378.009 148.042 387.842C144.439 397.367 136.119 394.982 136.043 394.944C134.415 394.213 115.096 373.664 114.275 372.792C108.225 366.357 95.5846 347.23 95.5205 347.102C92.1105 340.526 93.0079 332.821 90.0466 326.129L89.739 325.527C89.662 325.399 82.1499 312.81 83.6882 309.708C78.7784 307.298 68.9203 295.286 72.7148 288.556C68.4716 283.966 72.9199 276.557 67.4717 272.352C67.2666 272.557 66.9845 272.826 66.7794 273.032C66.4974 272.929 66.1385 272.814 65.8564 272.711C65.5231 273.121 64.8437 273.506 64.3181 273.583C56.7419 265.981 56.7419 265.981 54.601 267.57C44.4352 275.121 43.1918 272.198 41.115 267.378C41.0638 267.263 36.2437 253.379 34.9617 234.009C34.4361 226.1 37.6282 218.588 37.3846 210.717C37.3461 211.011 37.282 211.396 37.2436 211.691C38.4101 195.051 56.2804 165.849 56.4598 165.579C59.2032 161.593 60.4467 160.067 61.2158 159.734C62.3055 159.272 63.049 160.234 63.9848 160.426C64.8309 160.593 65.177 160.465 68.5485 158.157C71.6252 156.042 72.8174 155.414 74.6377 154.952C75.4197 154.76 75.4197 154.76 83.3421 154.183C85.1111 154.132 86.2905 154.106 84.624 157.824C83.4574 160.413 81.432 162.618 81.0987 165.592C81.8807 171.028 94.8411 181.245 97.2511 173.451C98.3664 169.848 99.7253 169.079 100.674 169.066C101.084 169.066 101.623 169.015 102.02 169.092C105.93 169.823 108.301 173.476 112.07 174.463C115.749 175.425 118.954 172.399 122.621 173.207C122.877 173.758 123.313 174.463 123.71 174.938C129.12 174.284 131.466 169.477 133.338 165.605C136.94 157.849 135.696 156.26 135.222 155.965C135.222 155.965 126.39 156.209 124.492 156.337C120.711 156.58 118.557 155.862 117.839 155.619C117.967 155.388 118.121 155.093 118.249 154.862C117.698 154.696 116.929 154.606 116.352 154.593C116.621 153.145 116.455 151.606 117.147 150.235C114.801 147.722 118.147 145.44 117.826 142.966C116.198 141.864 114.788 141.428 112.788 142.723C112.737 143.312 112.878 144.12 113.122 144.658C112.583 144.671 111.878 144.761 111.365 144.889C111.314 145.158 111.263 145.517 111.224 145.786C110.981 145.184 110.57 144.415 110.199 143.889C109.558 146.62 111.609 149.004 111.199 151.696C111.045 151.465 110.827 151.158 110.673 150.927C110.66 151.414 110.404 152.093 110.058 152.452C109.66 152.145 108.955 151.94 108.468 152.004C108.648 152.235 108.891 152.555 109.058 152.786C108.648 153.158 108.071 153.632 107.635 153.965C107.584 154.606 107.507 155.452 107.443 156.093C107.199 156.247 106.891 156.452 106.661 156.593C103.174 154.26 105.289 151.555 105.981 150.671C105.417 150.632 104.225 150.555 103.904 148.876C103.52 146.889 104.161 143.787 104.174 143.761C104.891 140.518 102.61 137.967 102.161 134.992C102.046 134.223 101.507 133.262 101.417 132.48C101.353 131.788 101.635 130.8 102.02 130.211C101.892 129.954 101.738 129.621 101.61 129.365C101.366 129.454 101.033 129.57 100.789 129.66C100.546 129.531 100.225 129.365 99.9816 129.237C97.3921 131.095 96.4307 131.8 96.8152 135.531C97.1998 139.351 101.007 141.492 101.61 145.209C100.379 145.684 99.2637 144.863 98.0587 144.94L98.0203 144.979C98.0331 145.017 97.6613 149.786 95.4564 152.363C93.6232 152.145 92.431 153.952 90.6363 153.863C89.1749 151.312 93.9565 151.337 95.1872 149.607C99.0202 144.248 93.3668 134.569 93.3027 134.467C91.367 131.403 88.175 134.48 85.6111 134.416C85.5983 134.416 85.5855 134.416 84.9573 134.454C84.906 134.467 76.5991 141.146 72.2533 148.671C69.3561 153.709 66.3179 156.619 62.9849 157.58C61.7799 156.708 61.9209 155.132 61.1774 154.029C60.921 154.106 60.562 154.196 60.3057 154.26C62.0234 150.376 62.0234 150.376 62.8823 148.722C62.8311 148.786 62.7541 148.889 62.7029 148.953C69.4074 134.762 69.4074 134.762 75.0864 134.992C78.0605 135.108 85.4957 126.019 82.637 120.968C84.342 119.917 84.4189 119.878 87.0341 119.199C88.7262 114.93 106.789 104.931 106.955 104.867C107.148 105.046 107.391 105.277 107.584 105.457C109.571 103.316 110.711 100.572 112.686 98.4315C113.019 98.1111 113.468 97.688 113.814 97.3932L113.903 97.3547C115.429 96.0856 116.07 95.9959 116.942 95.8677C115.429 97.4829 114.378 99.5212 112.455 100.777C112.75 100.752 113.147 100.726 113.442 100.701C112.481 102.188 112.481 102.188 111.276 102.29C111.391 102.008 111.558 101.624 111.673 101.342C110.686 102.944 110.75 103.072 111.276 104.034C111.276 104.034 112.865 103.841 115.044 103.675C114.826 103.829 114.532 104.021 114.314 104.162C114.455 104.405 114.634 104.739 114.775 104.982C114.852 104.982 123.069 104.226 124.8 103.098C127.389 99.2392 129.607 96.7137 131.363 95.5985C131.825 95.8548 132.338 96.3804 132.633 96.8291C135.568 96.4958 134.889 93.291 136.478 91.8808C137.491 90.9835 137.491 90.9835 145.657 90.4835C145.567 90.163 145.452 89.7272 145.362 89.3939C145.08 89.2529 144.708 89.0477 144.426 88.9067C144.388 88.7273 144.35 88.4837 144.311 88.2914C137.004 89.5862 137.004 89.5862 135.658 89.1247C137.863 85.766 137.863 85.766 146.26 79.2922C142.862 76.8693 141.914 79.7665 141.606 80.728C130.223 85.1378 130.787 88.5863 131.069 90.24C118.877 100.854 118.877 100.854 115.903 101.047C116.006 100.739 116.16 100.316 116.262 100.008C113.814 102.534 113.814 102.534 113.083 103.085C112.839 102.97 112.519 102.829 112.275 102.726C113.814 102.149 113.814 102.149 114.057 100.316C117.454 100.97 119.621 94.1883 120.544 91.2783C118.006 93.3294 116.916 93.9191 114.929 94.6626C114.711 94.5088 114.429 94.3165 114.211 94.1627C114.365 93.2397 114.993 92.4449 115.019 91.4834C117.108 89.5477 118.301 86.7146 121.07 85.4711C122.903 84.6122 123.133 84.4969 124.71 83.7405C129.21 81.5356 133.222 78.523 137.555 76.0361L137.645 76.0104C139.606 74.7413 140.081 74.4465 140.491 74.0619C140.619 73.9465 140.747 73.8183 140.901 73.6517C140.299 73.8183 139.465 73.9465 138.85 73.985C140.452 73.0235 142.26 72.4979 143.914 71.6518C143.747 71.857 143.516 72.1134 143.35 72.3185C145.452 72.1518 147.016 70.6391 148.965 70.0622C148.952 70.3186 148.939 70.6648 148.913 70.9211C151.054 70.3571 151.054 70.3571 151.413 70.0366C151.708 70.0879 152.092 70.152 152.387 70.2033C153.182 69.1393 153.323 68.947 155.233 68.2804C155.477 68.4214 155.797 68.6008 156.041 68.7419C155.528 69.0623 154.861 69.5238 154.374 69.8828C156.156 69.0239 157.964 68.7418 158.733 68.6265C158.515 68.7803 158.233 68.9854 158.028 69.1392C158.335 69.0495 158.759 68.9213 159.066 68.8188C159.335 68.9726 159.682 69.1777 159.951 69.3315C159.348 69.5367 158.528 69.8187 157.925 70.0238C160.784 70.2161 160.784 70.2161 161.13 70.2545C161.181 70.5109 161.245 70.8442 161.297 71.1006C166.091 72.139 167.886 72.5236 168.399 73.7286C169.078 75.3438 166.181 77.3308 164.822 77.6C162.245 78.1128 160.322 76.113 157.951 75.8053C159.464 81.8817 159.464 81.8817 161.143 81.4715C161.015 80.9331 160.733 80.2408 160.451 79.7665C163.938 79.664 166.553 76.677 170.104 76.7924C170.27 76.9975 170.488 77.2796 170.655 77.4975C171.988 74.5106 171.988 74.5106 172.257 73.485C172.116 73.2543 171.937 72.9594 171.796 72.7415C174.116 71.5365 175.321 72.0236 175.385 74.1773C173.36 74.2542 172.962 74.3183 172.68 75.8822C177.436 76.2796 180.782 71.8185 185.525 72.139C185.051 72.4851 184.449 72.9594 184 73.3312C191.115 72.9851 192.153 72.4338 193.473 71.7416C193.396 71.6262 193.396 71.6262 190.781 69.652C202.498 73.1645 202.498 73.1645 202.96 73.0107C201.498 71.4724 200.896 70.0494 201.152 68.7675C201.562 66.7292 204.203 66.5626 204.678 64.5756C205.229 64.614 205.959 64.7807 206.485 64.973H206.498C206.498 64.973 206.498 64.973 206.652 64.973C206.908 65.0627 207.241 65.1781 207.498 65.2678C208.716 67.883 208.229 70.9468 209.575 73.5235C208.844 75.4464 208.767 75.6387 206.203 76.7283C212.215 76.3181 211.562 73.985 211.215 72.7159C213.779 71.3955 215.113 74.0491 217.112 74.5362C214.343 72.1518 210.51 71.075 208.587 67.6522C209.908 66.7805 209.908 66.7805 210.267 65.396C210.485 65.5498 210.78 65.7677 210.998 65.9216C211.023 66.601 211.139 67.4984 211.28 68.165C211.831 68.4342 211.831 68.4342 215.1 68.6521C214.779 68.1906 214.779 68.1906 212.433 67.0112C212.69 67.0753 213.023 67.1522 213.279 67.2163C213.484 67.0497 213.754 66.8318 213.946 66.6779C213.728 66.5369 213.433 66.3446 213.215 66.2036C213.228 66.2164 217.292 67.1138 219.817 67.2163C218.625 65.5626 217.971 65.1652 215.882 64.8319C215.882 64.8319 215.882 64.8319 216.266 64.6653C218.535 64.0884 220.971 64.755 223.202 63.8192C222.958 63.7166 222.612 63.5756 222.368 63.4603C221.881 61.1143 223.099 61.1271 228.227 61.2169C228.599 60.8323 229.265 60.4862 229.791 60.3708C229.791 60.3708 231.226 60.7938 234.803 60.6144C234.585 60.4477 234.29 60.217 234.072 60.0503C234.316 60.0503 234.624 60.0503 234.867 60.0503C235.765 58.8709 235.765 58.8709 236.982 58.6145C247.289 58.3966 255.596 66.0882 265.89 65.9216C266.031 65.7165 266.223 65.4345 266.364 65.2293C266.287 64.973 266.185 64.6268 266.108 64.3833C271.172 65.6524 275.556 69.5367 281.261 68.3829C281.171 68.0881 281.068 67.7035 280.979 67.4086C283.542 66.5754 285.927 67.883 288.401 68.0881C288.401 68.0881 288.414 68.0881 287.824 67.9599C287.632 67.7932 287.388 67.5753 287.196 67.4215C288.145 67.383 288.145 67.383 289.773 67.5625C289.17 67.3061 288.375 66.96 287.773 66.7036C287.683 66.46 287.568 66.1395 287.478 65.8959C296.99 65.1011 297.657 65.6267 300.118 67.6138C304.425 71.075 309.438 68.6906 314.091 69.2803C318.193 69.793 322.321 69.8443 326.423 70.3571C326.936 70.4212 327.577 70.7289 328 70.9981C327.756 70.9212 327.436 70.8186 327.205 70.7545C330.59 71.9852 331.128 72.0749 332.73 72.3441C329.064 70.8058 329.064 70.8058 328.628 69.9212C336.692 69.4726 356.344 74.8823 359.561 78.4205C359.292 78.4205 358.933 78.4205 358.664 78.4205C359.049 78.6 361.087 79.5742 362.766 80.8818C358.074 83.3431 355.459 78.4846 351.69 77.7154C353.6 78.9845 353.6 78.9845 354.267 79.4845C354.126 79.6896 353.946 79.9716 353.805 80.1767C357.074 81.9074 360.6 83.1252 363.638 85.2917C362.548 84.8815 362.356 84.8045 360.805 84.6763C360.997 85.0225 361.241 85.4711 361.433 85.8173C361.254 86.0352 361.023 86.3172 360.856 86.5352C361.882 87.4581 362.087 87.6504 363.228 89.599C363.112 89.8169 362.946 90.1118 362.83 90.3425C358.792 89.458 357.818 89.7015 356.946 89.9195C357.28 92.0603 362.869 95.2395 362.92 95.2652C362.971 95.2908 369.355 99.111 372.624 102.918C372.586 103.239 372.547 103.662 372.509 103.97C373.317 104.957 373.317 104.957 375.611 107.213C375.611 107.213 375.611 107.213 375.227 107.367C375.739 109.341 377.214 110.777 378.162 112.507C378.355 112.712 378.547 113.712 378.713 114.597C378.508 114.379 378.252 114.097 378.047 113.879L378.021 113.84C377.893 113.558 378.085 113.11 378.162 112.802C371.727 105.828 363.151 101.547 356.126 95.3164C356.126 95.3164 356.126 95.3164 356.139 95.3164C356.139 95.3164 356.139 95.3164 356.151 95.3164C356.151 95.3164 356.151 95.3164 356.164 95.3164C356.344 95.0472 356.574 94.7011 356.754 94.4319C354.036 87.0479 348.96 84.7148 347.524 84.7404C349.037 85.8557 349.434 86.1121 350.819 86.9454C350.562 86.9582 350.229 86.971 349.972 86.9838C350.139 87.6248 350.46 88.4452 350.742 89.0349C346.396 86.0865 345.922 85.9711 343.947 85.4968C343.781 85.6763 343.563 85.9198 343.396 86.1121C343.601 87.6248 343.601 87.6248 349.242 92.2654C347.306 94.9575 345.101 93.0089 344.678 92.5859C344.883 92.4321 345.152 92.227 345.345 92.0731C345.345 92.0731 345.345 92.0731 345.229 92.009C344.742 91.9321 344.088 91.8808 343.588 91.868C343.576 91.868 343.563 91.868 343.55 91.868C343.537 91.868 343.524 91.868 343.511 91.868C343.499 91.868 343.486 91.868 343.473 91.868C343.46 91.868 343.447 91.868 343.435 91.868C343.422 91.868 343.409 91.868 343.396 91.868C343.383 91.868 343.37 91.868 343.358 91.868C343.345 91.868 343.332 91.868 343.319 91.868C343.306 91.868 343.294 91.868 342.742 91.868C342.153 91.8424 341.358 91.7783 340.768 91.6885C340.794 91.7142 340.832 91.7526 340.871 91.7783C338.243 92.4705 335.397 89.5477 332.884 92.2654C330.884 94.4319 330.718 104.931 340.076 105.11C337.358 102.649 337.358 102.649 337.038 101.803C337.076 101.829 340.666 104.059 341.319 105.931C341.73 105.687 342.306 105.431 342.755 105.277C342.358 104.918 341.922 104.328 341.755 103.829C343.87 103.841 346.909 104.431 349.396 107.226C349.152 107.187 348.819 107.136 348.575 107.11C362.882 115.61 366.497 131.711 364.266 136.518C363.984 136.62 363.599 136.749 363.305 136.851C362.228 136.326 362.228 136.326 361.087 135.069C360.92 135.249 360.702 135.492 360.536 135.685C360.407 135.48 360.228 135.198 360.1 134.992C360.356 135.569 360.536 136.441 360.484 137.069C360.228 137.031 359.869 136.967 359.613 136.928C363.266 140.056 359.882 144.838 362.279 148.26C364.394 151.273 368.561 151.978 370.304 155.427C370.996 156.785 370.996 156.785 372.022 161.541C371.547 161.605 370.906 161.785 370.458 161.964C370.458 162.195 370.445 162.516 370.445 162.759C365.715 164.567 363.83 155.606 363.971 154.747C364.163 154.901 364.433 155.106 364.625 155.273C364.407 153.888 364.253 153.491 362.1 152.376L362.202 152.299L361.984 152.286C362.01 152.311 362.048 152.337 362.074 152.363C360.51 151.824 358.831 151.696 357.318 151.029C357.19 150.53 357.241 149.76 357.485 149.299C355.574 148.389 354.754 145.825 352.241 145.838C349.921 145.85 351.088 149.389 348.767 149.35C348.511 149.35 348.191 149.183 347.947 149.107C347.703 147.158 347.46 147.094 346.473 146.786C346.639 146.504 346.96 146.171 347.011 145.838C347.114 145.145 345.947 142.082 343.806 142.953C343.729 142.979 337.615 147.196 340.55 150.453C344.165 154.465 349.537 151.747 353.639 153.863C353.229 156.003 350.831 157.298 351.139 159.747C351.254 160.695 351.344 161.439 355.075 165.554C358.305 168.989 360.856 171.361 363.356 173.233C363.164 173.361 362.907 173.54 362.728 173.669C361.446 173.092 360.651 171.746 359.202 171.425C359.343 171.489 362.561 172.887 362.971 177.053C362.817 177.219 362.612 177.45 362.459 177.617C366.022 178.386 366.022 178.386 366.702 181.001C366.625 181.232 366.368 181.45 366.227 181.629C367.138 183.578 367.112 183.77 366.932 185.065C366.689 185.103 366.356 185.142 366.112 185.18C365.727 186.373 365.215 191.987 366.24 194.321C366.24 194.321 366.24 194.321 366.497 194.064C365.997 197.205 365.92 197.679 363.548 200.025C360.946 202.576 357.267 203.461 354.536 205.82C354.267 204.922 354.164 204.589 353.049 203.845C353.921 205.627 354.075 205.948 351.959 208.665C351.908 208.614 346.986 204.756 345.922 213.537C347.716 215.024 348.473 216.396 347.639 219.818C346.832 222.382 344.319 222.933 342.883 223.049C343.178 222.523 343.537 221.831 343.806 221.293C344.127 214.357 344.127 214.357 345.229 213.665C345.229 212.665 345.229 210.332 343.729 209.653C342.909 209.281 333.794 210.088 334.41 215.229C335.563 224.831 345.909 229.458 347.242 238.958C347.716 242.342 346.345 253.969 341.294 250.239C341.14 252.751 338.807 259.34 335.435 257.559C335.769 257.02 336.217 256.302 336.563 255.764C334.705 248.316 326.385 245.893 323.629 239.137C317.706 243.098 319.59 252.687 319.821 253.777C320.77 258.2 324.731 260.494 327.039 263.943C331.013 269.865 329.769 277.262 332.564 283.518C332.692 283.813 333.128 284.005 333.371 284.223C327.5 285.3 325.359 280.492 323.026 270.006C321.065 261.174 320.09 258.315 316.86 260.879C316.078 257.905 315.758 256.687 316.437 251.405C318.244 237.483 312.04 227.177 310.091 224.356C310.143 227.587 309.463 227.894 308.438 228.343ZM163.771 133.223C164.348 133.48 164.348 133.48 165.078 133.198C163.117 136.197 163.54 137.595 167.283 140.633C169.629 142.543 170.181 143.222 170.398 144.453C167.771 144.056 166.501 148.812 166.707 150.427C167.014 153.004 169.322 154.247 171.168 155.247C171.706 155.542 171.732 155.619 171.783 155.837C171.809 155.837 171.834 155.837 171.847 155.837L171.821 155.914C174.424 157.478 176.603 154.824 179.09 155.17C179.103 155.17 179.129 155.183 179.141 155.183C179.026 145.927 178.949 140.338 174.988 136.454C172.206 133.723 172.103 133.095 171.95 132.044C172.283 131.621 173.039 131.352 173.565 131.249C172.898 129.788 172.898 129.788 177.359 128.878C176.667 128.339 176.552 128.185 176.885 126.66C177.129 125.583 177.488 123.968 174.142 123.814C170.488 123.647 169.193 127.685 166.001 128.352C165.566 128.326 165.284 128.185 164.989 127.814C164.963 129.685 163.348 131.224 163.771 133.223ZM139.324 126.48C138.53 127.852 140.119 128.121 144.362 128.852C144.734 127.89 145.349 126.262 146.49 126.698C146.465 126.173 146.465 126.096 145.888 125.801C145.362 125.532 145.324 125.442 145.349 124.878C146.337 125.019 147.324 124.737 148.349 124.006C148.465 123.929 148.606 123.814 148.721 123.724C146.631 122.635 142.773 123.981 140.042 125.891C140.209 125.75 140.209 125.75 140.247 125.673C140.247 125.673 139.67 126.083 139.401 126.378C139.491 126.301 139.606 126.198 139.683 126.134L139.388 126.403L139.35 126.416L139.273 126.48H139.324ZM144.055 142.556C147.542 142.864 149.426 140.646 149.926 139.954C151.759 137.415 148.234 133.057 143.76 130.313C140.568 128.352 137.376 131.941 134.184 130.301C134.017 129.608 134.017 129.608 136.863 127.134C134.517 125.852 132.927 125.147 130.761 126.224L130.466 125.891L130.633 126.173L130.71 126.237C128.671 127.326 127.338 129.672 125.787 132.39C123.992 135.531 123.313 136.095 121.672 137.441C122.313 137.902 122.557 138.082 123.082 139.12C123.518 139.992 124.185 141.312 124.903 141.466C128.877 142.376 131.646 138.069 135.62 138.966C138.632 139.659 140.85 142.274 144.055 142.556ZM265.967 257.418C265.852 257.443 265.723 257.559 265.454 257.853C265.711 258.43 265.788 258.494 265.813 258.43C265.826 258.379 265.8 258.251 265.788 258.161C265.813 258.148 265.852 258.135 265.89 258.123L265.954 258.059C266.044 257.93 266.108 257.802 266.121 257.661C266.108 257.584 266.108 257.405 265.967 257.418ZM333.371 284.274C333.359 284.274 333.359 284.274 333.346 284.274C333.346 284.274 333.359 284.274 333.371 284.274C333.371 284.274 333.359 284.274 333.371 284.274ZM428.901 304.695C428.85 304.721 428.85 304.721 428.85 304.721C429.824 301.362 429.568 298.093 428.683 298.196C428.466 298.273 428.324 298.401 428.068 298.773C428.107 298.965 428.119 299.119 428.145 299.555C428.119 299.516 428.068 299.491 428.03 299.491C427.85 299.619 427.799 299.798 427.773 299.901C427.889 299.901 427.889 299.901 428.094 299.721C428.209 300.747 427.966 303.978 427.953 303.99C427.876 304.183 427.619 304.336 427.504 304.516C426.94 305.413 426.555 306.426 425.902 307.259C425.504 307.759 425.286 307.695 425.12 307.567C424.453 307.054 424.133 306.798 423.107 307.811C422.94 307.977 422.94 307.977 422.543 310.105C422.658 310.169 425.581 311.644 427.914 304.836C427.876 305.862 427.901 306.195 428.017 306.375C428.043 306.375 428.081 306.362 428.094 306.362L428.081 306.413C428.466 306.016 428.568 305.772 428.722 305.336L428.876 304.952L428.901 304.798L428.837 304.849C428.876 304.798 428.889 304.734 428.901 304.695ZM265.493 258.2C265.698 262.148 265.557 265.032 265.07 266.763C263.916 270.942 261.288 267.109 261.262 267.071C260.134 265.109 260.634 262.776 261.224 260.084C261.839 257.251 262.147 255.418 261.185 253.879C261.032 253.867 260.673 253.764 260.583 253.264L260.814 253.405C260.775 253.367 260.737 253.303 260.698 253.264C260.891 253.11 261.032 253.059 261.301 253.033C261.583 253.02 263.083 253.097 264.89 255.315C265.352 255.892 266.044 256.995 265.39 257.841C265.365 257.892 265.339 257.93 265.493 258.2ZM262.455 254.174C262.044 253.674 261.814 253.943 261.814 253.943C261.814 253.943 261.711 254.226 262.07 254.238C262.108 254.238 262.224 254.238 262.429 254.187C262.442 254.174 262.455 254.174 262.455 254.174ZM412.646 295.107C408.788 295.171 408.416 300.106 404.903 300.645C403.481 300.862 404.301 296.44 404.301 296.388C404.275 296.453 404.237 296.529 404.211 296.594C404.673 292.491 404.878 290.62 402.135 290.889C400.942 291.209 399.878 291.773 398.532 293.402C398.75 292.12 398.314 291.825 398.135 291.709C397.904 291.799 397.802 291.838 397.507 292.325C399.148 295.132 400.558 297.555 403.199 296.812C402.224 298.068 400.545 297.965 399.353 298.799L399.366 298.786C401.083 300.26 398.917 302.106 399.827 303.657C400.173 303.683 400.417 303.708 401.711 301.132C401.583 302.298 401.519 302.939 402.109 303.798C402.788 304.772 404.057 304.875 404.865 305.644C406.147 306.849 406.147 307.003 406.455 315.156C406.275 314.733 405.737 313.451 403.083 318.566C404.442 317.964 405.98 318.015 407.326 317.412C405.942 321.361 408.826 321.181 409.057 321.053C409.339 320.912 411.788 318.989 411.377 318.053C411.326 318.04 411.249 318.028 411.185 318.015C412.493 317.361 412.493 317.361 412.775 317.105C412.775 317.028 412.762 316.938 412.762 316.861L412.839 317.053C413.146 316.656 413.364 316.4 413.685 315.464C414.018 316.682 415.313 317.284 415.621 318.528C416.108 320.502 415.044 322.54 415.903 324.489C416.941 326.873 418.159 325.706 418.172 325.694C418.607 325.219 418.672 324.283 418.761 323.655C419.12 321.335 418.056 319.079 418.377 316.758C418.71 314.361 420.312 312.387 420.633 309.977C420.723 309.298 420.646 308.362 420.518 307.67C420.518 307.554 417.12 295.03 412.646 295.107ZM331.038 309.387C330.82 308.81 330.82 308.81 330.756 308.567L330.743 308.541C330.756 308.541 330.769 308.541 330.782 308.541C331.525 308.169 332.423 308.464 333.141 308.003C333.91 307.503 334.858 306.58 335.166 305.721C336.333 302.362 335.269 299.081 334.692 297.311C336.82 300.927 337.32 301.785 339.384 300.645C338.653 299.914 339.153 299.196 339.461 299.081C339.589 299.157 339.794 299.286 339.909 299.196L339.55 298.837L339.666 298.811C339.614 298.76 339.537 298.696 339.486 298.658H339.473L339.461 298.632C335.474 294.799 335.474 294.799 333.987 295.812C332.73 293.543 331.077 291.504 330.141 289.056C329.602 287.646 329.91 286.056 329.218 284.672C328.718 283.684 328.205 283.505 327.18 283.159C326.872 283.684 326.846 283.8 326.898 284.287C326.385 283.62 326.039 283.287 325.423 282.89C325.846 283.056 325.846 283.056 326.167 282.992C326.577 281.531 324.487 279.813 324.462 279.8C322.795 278.441 320.706 277.723 319.052 276.352C316.937 274.596 315.565 272.121 313.283 270.532C312.501 269.993 310.886 268.865 308.771 268.891C308.579 268.904 308.386 268.917 308.207 268.929C311.425 269.57 316.424 279.916 322.936 295.248C327.398 305.798 329.449 310.413 331.038 309.387ZM399.263 298.863C399.289 298.85 399.327 298.824 399.353 298.799C399.314 298.824 399.289 298.837 399.263 298.863ZM407.724 326.168C402.801 332.513 400.853 340.705 395.058 346.512C391.712 349.858 390.866 343.089 390.866 343.025C390.738 341 390.738 341 396.763 329.834C396.391 330.219 396.391 330.219 395.263 331.308C395.289 330.578 395.738 329.95 395.802 329.232C395.084 330.821 395.084 330.821 389.559 327.386C387.431 331.475 387.431 331.475 386.354 331.757C384.034 332.372 380.829 335.013 379.444 340.436C378.38 339.872 378.239 339.833 376.701 340.423C376.906 338.462 374.701 337.923 374.278 336.334C373.983 336.693 368.304 342.5 365.484 343.628C365.356 344.871 365.266 345.192 364.676 346.512C364.625 346.384 364.574 346.205 364.522 346.076C364.074 346.512 364.074 346.512 363.638 347.512C363.625 346.871 363.625 346.205 364.112 344.154C362.715 345.012 361.625 345.705 358.728 349.089C355.908 352.384 354.972 353.089 353.498 353.909C350.998 355.306 348.075 355.563 345.498 356.716C342.242 358.178 339.909 361.396 336.063 361.742C336.025 361.357 336.153 360.832 336.345 360.498C330.782 363.357 329.128 369.677 328.423 372.382C328.064 373.779 328.064 373.779 327.603 374.241C327.628 373.959 327.59 373.574 327.513 373.305C323.975 377.433 325.244 383.355 322.154 387.65C320.257 390.278 317.155 391.777 315.565 394.7C315.463 394.905 315.514 395.226 315.488 395.457C317.129 396.803 321.719 394.982 325.077 393.649C325.295 393.559 347.319 385.47 351.357 388.483C351.434 389.226 351.434 389.226 347.473 396.008C350.46 393.957 353.703 392.29 356.485 389.957C354.677 393.482 350.767 394.341 347.96 396.598C349.139 396.444 349.537 396.149 352.716 393.867C352.6 394.021 352.6 394.021 348.998 397.136C349.011 397.123 349.037 397.11 349.049 397.098C349.178 397.149 349.357 397.213 349.498 397.264C348.588 400.02 344.986 400.854 344.652 404.02C345.088 404.379 345.088 404.379 350.613 402.623C349.908 403.289 349.908 403.289 349.216 403.597C349.37 403.61 349.575 403.61 349.729 403.623C349.511 404.238 349.511 404.238 348.639 405.238C372.022 394.277 386.123 378.574 391.097 372.33C390.841 372.625 390.495 373.036 390.251 373.33C390.738 372.728 391.238 372.125 391.725 371.523C391.623 371.638 391.494 371.792 391.405 371.907L391.559 371.702L391.648 371.587C391.776 371.42 391.956 371.202 392.084 371.049C391.994 371.164 391.879 371.305 391.789 371.42C392.392 370.6 394.251 368.087 395.456 364.882C396.507 362.113 397.802 359.447 398.737 356.627C399.571 354.153 398.955 351.422 400.16 349.025C404.968 339.462 404.968 339.462 405.096 336.09C405.327 330.129 406.467 328.373 407.89 326.155L407.903 326.142C407.89 326.129 407.89 326.117 407.852 326.117C407.775 326.129 407.749 326.155 407.724 326.168ZM386.726 302.478C387.405 302.875 388.533 302.439 388.815 301.696C388.879 301.542 388.879 301.401 388.879 301.285H388.866C388.764 300.516 387.892 299.901 386.982 299.952C386.251 300.119 386.2 300.67 386.174 300.85C386.149 301.183 386.046 302.08 386.726 302.478ZM374.65 220.087L374.637 220.049C374.637 220.036 374.624 220.023 374.624 220.011C374.624 220.023 374.624 220.036 374.624 220.049L374.65 220.087ZM382.059 263.455C382.059 263.455 382.059 263.443 382.072 263.443C381.944 263.609 381.816 263.75 381.726 263.827C381.906 263.661 382.008 263.532 382.059 263.455ZM390.892 263.789C391.007 265.891 391.071 265.955 391.456 266.289C391.623 265.712 391.802 264.943 391.879 264.353C391.892 264.276 392.93 256.43 390.187 253.11C390.2 253.085 390.212 253.059 390.225 253.046C390.52 252.892 390.52 252.892 390.405 250.546C390.225 251.021 390.02 251.482 389.854 251.956C389.892 252.149 389.943 252.405 389.982 252.597C389.059 251.982 389.059 251.982 388.828 247.675C390.738 248.47 390.161 245.547 389.597 244.239C388.866 242.509 388.649 242.534 386.944 242.752C385.662 238.317 385.662 238.317 385.11 238.24C384.816 238.47 384.815 238.47 384.674 239.047C384.354 236.996 382.008 236.996 381.534 237.406C381.341 237.573 381.265 237.958 381.226 238.214C381.085 237.458 381.034 236.945 381.008 235.881C381.021 235.894 381.034 235.894 381.034 235.907C381.098 235.522 381.111 235.343 381.098 234.945C381.098 234.83 381.047 234.689 381.047 234.573C380.88 230.945 382.034 227.254 380.585 223.677C379.508 221.023 375.855 222.767 374.714 220.241L374.637 220.113C374.663 220.203 374.701 220.331 374.752 220.408C375.175 223.549 373.855 226.805 375.342 229.869C375.111 229.805 374.778 229.958 374.56 230.074C374.086 231.894 374.996 235.394 376.714 236.727C377.329 236.381 377.419 235.958 377.009 235.24C377.88 235.817 377.88 235.817 377.483 238.868C377.303 238.894 377.06 238.932 376.88 238.958C376.419 240.15 377.06 240.881 379.47 243.598C380.88 241.868 379.201 239.97 378.085 238.996C378.585 238.842 379.188 238.701 380.457 238.894C380.201 239.637 380.572 239.932 380.931 240.099C381.188 239.983 381.457 239.868 381.149 239.06C382.649 239.573 383.2 241.137 384.392 241.97C384.162 240.804 383.585 240.393 383.418 240.291C383.457 239.829 383.559 238.419 384.995 239.945C385.854 240.855 386.597 242.265 386.841 242.727C386.777 242.739 386.7 242.739 386.636 242.752C386.444 243.983 386.444 243.983 388.418 246.803C387.995 247.149 387.726 247.239 387.379 246.79C387.456 246.765 387.546 246.739 387.623 246.726C387.661 246.265 387.661 246.265 387.392 245.79C387.2 245.983 387.097 246.072 387.277 246.636L387.149 246.367C386.764 247.38 386.777 248.252 387.213 249.7C387.174 249.687 387.123 249.675 387.085 249.662C387.085 249.713 387.085 249.713 387.777 250.944L389.764 254.495C389.328 255.93 389.328 255.93 386.187 259.417C386.226 259.302 386.277 259.148 386.328 259.033C385.88 258.264 383.29 258.405 382.79 260.161C382.482 261.225 382.572 262.379 382.085 263.404C383.111 262.109 383.341 261.507 383.47 261.186C384.457 262.507 387.033 260.148 387.046 261.866C387.059 263.135 386.226 264.302 386.623 265.609C387.02 266.878 388.405 267.276 389.046 268.327C389.02 266.596 390.495 265.404 390.892 263.789ZM383.008 254.918C383.482 254.956 384.469 253.328 384.905 252.444C384.905 252.444 385.149 251.072 385.2 250.405C385.367 248.239 384.38 248.444 384.367 248.444C383.341 249.239 382.162 254.866 383.008 254.918ZM384.29 244.739C384.854 243.509 385.149 242.778 385.149 242.214C385.149 242.175 385.136 242.137 385.136 242.098C385.88 242.752 386.572 244.034 386.482 245.201C386.456 245.521 386.379 245.726 386.328 245.867C385.726 244.508 385.059 244.342 384.085 245.278C384.085 245.265 384.085 245.265 384.085 245.252L384.072 245.316C384.098 245.226 384.11 245.098 384.11 245.008C384.123 244.624 384.162 244.585 384.187 244.547C384.213 244.585 384.226 244.598 384.29 244.739ZM384.444 244.675L384.508 244.701L384.521 244.547L384.444 244.675ZM374.637 219.998C374.637 219.985 374.637 219.985 374.637 219.972C374.611 219.985 374.624 219.998 374.637 219.998ZM394.033 284.889C393.879 285.12 393.712 285.351 393.546 285.569C393.687 284.543 393.558 283.518 393.712 282.492C393.84 281.659 393.84 281.659 394.186 281.313C394.122 281.351 394.033 281.403 393.969 281.441C393.289 281.979 392.546 282.967 392.212 286.21C392.161 286.069 392.161 286.069 392.11 286.018C391.969 286.441 392.161 289.915 392.302 290.697C392.584 292.299 392.969 292.363 393.238 292.273C392.276 288.248 394.904 288.338 394.93 288.338C394.584 286.851 394.61 286.133 395.468 283.505C394.968 283.364 393.969 284.543 394.033 284.889ZM265.788 258.764C265.813 258.802 265.826 258.84 265.852 258.866C265.723 258.52 265.582 258.187 265.454 257.841C265.467 257.943 265.48 258.084 265.493 258.2C265.582 258.392 265.685 258.584 265.788 258.764ZM178.129 339.821L177.975 339.487C177.988 339.538 178.013 339.603 178.026 339.654C177.795 339.103 177.77 339.09 177.5 338.949C177.398 339.244 177.398 339.244 177.334 342.756C176.975 342.154 176.911 342 176.706 341.346C175.783 343.628 175.757 344.743 176.449 350.55C177.321 357.755 175.975 371.831 171.834 372.125C170.386 372.228 167.54 370.151 166.54 366.793C165.604 363.626 164.386 347.166 164.386 347.063C164.514 344.833 166.707 344.205 167.771 342.718C168.091 342.269 168.206 341.705 168.54 341.256C168.706 341.026 168.976 340.769 169.168 340.577C170.809 338.898 171.014 336.487 172.193 334.577C172.898 333.436 173.167 332.052 174.193 331.078C175.462 330.719 176.449 333.68 177.065 336.218C177.539 338.218 177.693 338.885 178.129 339.821ZM177.77 339C177.718 338.859 177.68 338.705 177.59 338.577C177.603 338.641 177.641 338.705 177.667 338.769C177.693 338.833 177.731 338.923 177.77 339ZM374.675 220.139L374.624 219.972C374.637 220.023 374.663 220.075 374.675 220.139Z" fill="#0D96D5"/>
</svg>
